
<?xml version="1.0" encoding="UTF-8" standalone="no"?>
<!-- Created with Inkscape (http://www.inkscape.org/) -->

<svg
   xmlns:dc="http://purl.org/dc/elements/1.1/"
   xmlns:cc="http://creativecommons.org/ns#"
   xmlns:rdf="http://www.w3.org/1999/02/22-rdf-syntax-ns#"
   xmlns:svg="http://www.w3.org/2000/svg"
   xmlns="http://www.w3.org/2000/svg"
   xmlns:xlink="http://www.w3.org/1999/xlink"
   xmlns:sodipodi="http://sodipodi.sourceforge.net/DTD/sodipodi-0.dtd"
   xmlns:inkscape="http://www.inkscape.org/namespaces/inkscape"
   width="1000"
   height="227.511"
   viewBox="0 0 264.58333 60.195621"
   version="1.1"
   id="svg8"
   sodipodi:docname="UniMás (Wordmark).svg"
   inkscape:version="0.92.2 (5c3e80d, 2017-08-06)">
  <defs
     id="defs2">
    <rect
       height="612"
       width="792"
       y="-201.5"
       x="-298.384"
       id="SVGID_1_" />
    <defs
       id="defs5">
      <rect
         id="rect4035"
         x="-298.384"
         y="-201.5"
         width="792"
         height="612" />
    </defs>
    <clipPath
       id="SVGID_2_">
      <use
         xlink:href="#SVGID_1_"
         overflow="visible"
         id="use9"
         style="overflow:visible"
         x="0"
         y="0"
         width="195.845"
         height="209.563" />
    </clipPath>
  </defs>
  <sodipodi:namedview
     id="base"
     pagecolor="#ffffff"
     bordercolor="#666666"
     borderopacity="1.0"
     inkscape:pageopacity="0.0"
     inkscape:pageshadow="2"
     inkscape:zoom="0.7"
     inkscape:cx="450.19449"
     inkscape:cy="179.31129"
     inkscape:document-units="px"
     inkscape:current-layer="layer1"
     showgrid="false"
     units="px"
     inkscape:window-width="1366"
     inkscape:window-height="705"
     inkscape:window-x="-8"
     inkscape:window-y="-8"
     inkscape:window-maximized="1" />
  <metadata
     id="metadata5">
    <rdf:RDF>
      <cc:Work
         rdf:about="">
        <dc:format>image/svg+xml</dc:format>
        <dc:type
           rdf:resource="http://purl.org/dc/dcmitype/StillImage" />
        <dc:title></dc:title>
      </cc:Work>
    </rdf:RDF>
  </metadata>
  <g
     inkscape:label="Layer 1"
     inkscape:groupmode="layer"
     id="layer1"
     transform="translate(0,-236.80437)">
    <path
       clip-path="url(#SVGID_2_)"
       d="m 21.778,194.665 c 0,3.979 -3.223,7.2 -7.197,7.2 -3.966,0 -7.188,-3.222 -7.188,-7.2 V 178.781 H 0 v 15.884 c 0,8.06 6.531,14.588 14.581,14.588 8.052,0 14.588,-6.528 14.588,-14.588 v -15.884 h -7.391 z"
       id="path13"
       style="fill:#ed1c24;fill-opacity:1;stroke:none"
       inkscape:connector-curvature="0"
       transform="matrix(1.4247124,0,0,1.4247124,0,-1.1253418)" />
    <path
       clip-path="url(#SVGID_2_)"
       d="m 49.841,177.978 c -8.052,0 -14.585,6.528 -14.585,14.582 v 15.884 h 7.391 V 192.56 c 0,-3.969 3.226,-7.198 7.194,-7.198 3.974,0 7.204,3.229 7.204,7.198 v 15.884 h 7.389 V 192.56 c 0,-8.054 -6.54,-14.582 -14.593,-14.582"
       id="path15"
       style="fill:#ed1c24;fill-opacity:1;stroke:none"
       inkscape:connector-curvature="0"
       transform="matrix(1.4247124,0,0,1.4247124,0,-1.1253418)" />
    <rect
       x="71.309998"
       y="178.838"
       clip-path="url(#SVGID_2_)"
       width="7.3899999"
       height="29.605"
       id="rect17"
       style="fill:#ed1c24;fill-opacity:1;stroke:none"
       transform="matrix(1.4247124,0,0,1.4247124,0,-1.1253418)" />
    <polygon
       clip-path="url(#SVGID_2_)"
       points="155.073,167.002 137.318,170.679 136.36,174.406 151.641,174.406 "
       id="polygon19"
       style="fill:#ed1c24;fill-opacity:1;stroke:none"
       transform="matrix(1.4247124,0,0,1.4247124,0,-1.1253418)" />
    <path
       clip-path="url(#SVGID_2_)"
       d="m 167.522,186.326 c 0.156,-0.75 0.991,-1.283 2.592,-1.283 2.963,0 6.379,0.932 8.967,3.046 l 6.629,-6.962 c -3.122,-2.825 -7.402,-4.227 -13.561,-4.227 -8.809,0 -14.496,4.535 -15.699,10.396 l -0.018,0.086 c -1.335,6.526 4.563,8.499 11.443,9.914 3.287,0.66 4.196,1.145 4.01,2.027 l -0.012,0.084 c -0.174,0.841 -1.098,1.332 -3.002,1.332 -3.758,0 -7.512,-1.058 -10.457,-3.615 l -4.55,4.23 -5.487,-24.002 h -10.596 l -16.471,25.816 5.303,-25.87 h -13.678 l -6.713,10.937 -0.358,-1.798 c -1.815,-8.755 -9.867,-9.135 -10.987,-9.139 h -4.558 l -6.376,31.12 h 10.553 l 3.161,-15.425 1.956,12.961 h 5.78 l 7.269,-12.961 -3.159,15.425 h 8.456 2.275 9.131 l 2.501,-4.14 h 11.188 l 0.838,4.14 h 11.59 l -0.467,-2.054 c 3.158,1.67 7.172,2.518 11.668,2.518 8.592,0 14.924,-3.968 16.25,-10.442 l 0.02,-0.081 c 1.273,-6.216 -3.73,-8.505 -11.61,-9.962 -3.252,-0.614 -4.001,-1.152 -3.835,-1.982 z m -31.469,10.633 4.463,-7.484 1.382,7.484 z"
       id="path21"
       style="fill:#000000;stroke:none"
       inkscape:connector-curvature="0"
       transform="matrix(1.4247124,0,0,1.4247124,0,-1.1253418)" />
  </g>
</svg>
